# xmcd
#
# Track frame offsets: 
#        150
#        26019
#        40298
#        61969
#        86358
#        101497
#        116003
#        130680
#        147556
#        161421
#        182143
#        198385
#
# Disc length: 3033 seconds
#
# Revision: 0
# Processed by: cddbd v1.5.2PL0 Copyright (c) Steve Scherf et al.
# Submitted via: ExactAudioCopy v0.95a5
#
DISCID=a20bd70c
DTITLE=Blues Drawers - Bez cukru
DYEAR=2008
DGENRE=Blues
TTITLE0=Hymn zycia
TTITLE1=Uzalezniony
TTITLE2=Ju¿ czas
TTITLE3=Kogos mam
TTITLE4=Sczesliwy emigrant
TTITLE5=Zajety dzien
TTITLE6=Tadka riff
TTITLE7=Propozycja
TTITLE8=Pij kokjos
TTITLE9=Swojski Robin
TTITLE10=Blues brat
TTITLE11=Malarz
EXTD=
EXTT0=
EXTT1=
EXTT2=
EXTT3=
EXTT4=
EXTT5=
EXTT6=
EXTT7=
EXTT8=
EXTT9=
EXTT10=
EXTT11=
PLAYORDER=
